<svg xmlns="http://www.w3.org/2000/svg" version="1.1" xmlns:xlink="http://www.w3.org/1999/xlink" width="512" height="512" x="0" y="0" viewBox="0 0 421.622 421.622" style="enable-background:new 0 0 512 512" xml:space="preserve" class=""><g><path d="M163.001 83.913c-.136 0-.272.002-.407.007h-22.4v-22.8c0-6.053-4.907-10.96-10.96-10.96h-35.68c-6.053 0-10.96 4.907-10.96 10.96v22.8h-22.8c-6.053 0-10.96 4.907-10.96 10.96v35.68c0 6.053 4.907 10.96 10.96 10.96h22.8v22.8c0 6.053 4.907 10.96 10.96 10.96h35.6c6.053.044 10.996-4.827 11.04-10.879V141.44h22.4c6.049.221 11.132-4.503 11.353-10.552.004-.109.006-.218.007-.328V94.88c.004-6.053-4.9-10.963-10.953-10.967zm-5.047 41.608h-25.76a8 8 0 0 0-8 7.92v25.76h-25.6v-25.76a8 8 0 0 0-8-8h-25.76v-25.6h25.76a8 8 0 0 0 8-8v-25.68h25.6v25.76a8 8 0 0 0 8 8h25.76v25.6zM415.554 113.041l-100.96-29.2a8 8 0 0 0-9.52 4.48l-40 92.72a8 8 0 0 0 2.56 9.6l35.28 26.32c-23.12 50.48-72 78.64-87.36 86.48l-35.36-33.12a8 8 0 0 0-9.12-1.36l-84.96 42.96a8 8 0 0 0-4.16 9.04l23.2 94.48a8 8 0 0 0 8 6.08h.88c271.04-29.52 307.2-297.04 307.52-299.68a8 8 0 0 0-6-8.8zm-296.56 291.68-20-81.36 74.24-37.52 34.56 33.04a8.001 8.001 0 0 0 8.72 1.6c3.04-1.28 74.56-32.96 102.96-103.04a8 8 0 0 0-2.64-9.44l-35.28-26.24 35.04-80.48 88 25.28c-7.6 40.24-56.72 249.12-285.6 278.16z" fill="#FFFFFF" opacity="1" data-original="#000000" class=""></path><path d="M222.052 96.8C213.861 35.756 157.735-7.089 96.691 1.102 38.852 8.863-3.223 59.903.194 118.161c.3 4.539.888 9.055 1.76 13.52a8.61 8.61 0 0 0 0 .88c.206 1.186.473 2.361.8 3.52l.64 2.64c0 .8 0 1.6.56 2.24 16.88 66 108.72 129.28 112.56 132a8.005 8.005 0 0 0 4.48 1.6 8 8 0 0 0 8-10.08l-2.64-42.32c61.044-8.192 103.889-64.317 95.698-125.361zm-91.91 108.123a95.452 95.452 0 0 1-12.828 1.638 8 8 0 0 0-7.522 8.451l.002.029 2.16 34.56c-25.92-20-80.88-66.96-92.64-112.88l-.72-2.56c0-.72 0-1.52-.56-2.24v-1.04a8.05 8.05 0 0 0 0-1.12C7.832 78.047 41.483 27.855 93.196 17.653 144.91 7.45 195.102 41.101 205.304 92.815c10.203 51.713-23.449 101.906-75.162 112.108z" fill="#FFFFFF" opacity="1" data-original="#000000" class=""></path></g></svg>