<svg xmlns="http://www.w3.org/2000/svg" version="1.1" xmlns:xlink="http://www.w3.org/1999/xlink" width="512" height="512" x="0" y="0" viewBox="0 0 397.6 397.6" style="enable-background:new 0 0 512 512" xml:space="preserve" class=""><g><path d="M382 17.36H16c-8.837 0-16 7.163-16 16V322.4c0 8.837 7.163 16 16 16h24v25.84c0 8.837 7.163 16 16 16h42.8c8.837 0 16-7.163 16-16V338.4h168v25.84c0 8.837 7.163 16 16 16h42.8c8.837 0 16-7.163 16-16V338.4h24c8.837 0 16-7.163 16-16V33.36c.003-8.683-6.92-15.783-15.6-16zM99.12 364.24h-42.8V338.4h42.8v25.84zm242.48 0h-42.8V338.4h42.8v25.84zM382 322.4H16V33.36h366V322.4z" fill="#FFFFFF" opacity="1" data-original="#000000" class=""></path><path d="M341.6 54.8H56.32c-8.837 0-16 7.163-16 16v182.08c0 8.837 7.163 16 16 16H341.6c8.837 0 16-7.163 16-16V70.8c0-8.837-7.163-16-16-16zm-.16 198.08H56.32v-82.96h60.16l26.48 64.96a8 8 0 0 0 7.44 4.96h.56a8 8 0 0 0 7.2-6.08l27.2-111.28 22.4 75.28a7.999 7.999 0 0 0 15.2.4l22.64-62.56 24 30.64a8.002 8.002 0 0 0 6.32 3.04h65.52v83.6zm.16-99.52H280l-30.64-38.88a8 8 0 0 0-13.84 2.24L216.24 170l-24-80a8 8 0 0 0-8-5.68 7.999 7.999 0 0 0-7.6 6.08l-28.08 115.68-19.36-47.28a8 8 0 0 0-7.44-4.96H56.32V70.8H341.6v82.56z" fill="#FFFFFF" opacity="1" data-original="#000000" class=""></path></g></svg>